<svg width="80" height="71" viewBox="0 0 80 71" fill="none" xmlns="http://www.w3.org/2000/svg">
<path d="M21.6666 47.3335C24.2777 47.3335 26.8194 47.5924 29.2916 48.1101C31.7638 48.6278 34.2221 49.4043 36.6666 50.4397V21.3002C34.3888 20.1168 31.9721 19.2293 29.4166 18.6377C26.861 18.046 24.2777 17.7502 21.6666 17.7502C19.6666 17.7502 17.6805 17.9227 15.7083 18.2679C13.736 18.613 11.8333 19.1307 9.99992 19.821V49.1085C11.9444 48.5168 13.8749 48.0731 15.7916 47.7772C17.7083 47.4814 19.6666 47.3335 21.6666 47.3335ZM43.3333 50.4397C45.7777 49.4043 48.236 48.6278 50.7083 48.1101C53.1805 47.5924 55.7221 47.3335 58.3333 47.3335C60.3333 47.3335 62.2916 47.4814 64.2083 47.7772C66.1249 48.0731 68.0555 48.5168 69.9999 49.1085V19.821C68.1666 19.1307 66.2638 18.613 64.2916 18.2679C62.3194 17.9227 60.3333 17.7502 58.3333 17.7502C55.7221 17.7502 53.1388 18.046 50.5833 18.6377C48.0277 19.2293 45.611 20.1168 43.3333 21.3002V50.4397ZM39.9999 59.1668C37.3333 57.2932 34.4444 55.8387 31.3333 54.8033C28.2221 53.7679 24.9999 53.2502 21.6666 53.2502C19.3333 53.2502 17.0416 53.5213 14.7916 54.0637C12.5416 54.6061 10.3888 55.3703 8.33325 56.3564C7.16659 56.8988 6.04159 56.8741 4.95825 56.2825C3.87492 55.6908 3.33325 54.8279 3.33325 53.6939V18.046C3.33325 17.5036 3.48603 16.9859 3.79159 16.4929C4.09714 15.9998 4.55547 15.63 5.16659 15.3835C7.72214 14.2002 10.3888 13.3127 13.1666 12.721C15.9444 12.1293 18.7777 11.8335 21.6666 11.8335C24.8888 11.8335 28.0416 12.2033 31.1249 12.9429C34.2083 13.6825 37.1666 14.7918 39.9999 16.271C42.8333 14.7918 45.7916 13.6825 48.8749 12.9429C51.9583 12.2033 55.111 11.8335 58.3333 11.8335C61.2221 11.8335 64.0555 12.1293 66.8333 12.721C69.611 13.3127 72.2777 14.2002 74.8333 15.3835C75.4444 15.63 75.9027 15.9998 76.2083 16.4929C76.5138 16.9859 76.6666 17.5036 76.6666 18.046V53.6939C76.6666 54.8279 76.1249 55.6908 75.0416 56.2825C73.9583 56.8741 72.8333 56.8988 71.6666 56.3564C69.611 55.3703 67.4583 54.6061 65.2083 54.0637C62.9583 53.5213 60.6666 53.2502 58.3333 53.2502C54.9999 53.2502 51.7777 53.7679 48.6666 54.8033C45.5555 55.8387 42.6666 57.2932 39.9999 59.1668Z" fill="#4956AD"/>
</svg>
