<svg width="77" height="83" viewBox="0 0 77 83" fill="none" xmlns="http://www.w3.org/2000/svg">
<path d="M3.20825 69.1668V55.3335C3.20825 53.3738 3.83655 51.7311 5.09315 50.4054C6.34974 49.0797 7.86033 48.4168 9.62492 48.4168H20.1322C21.2017 48.4168 22.2176 48.705 23.1801 49.2814C24.1426 49.8578 24.918 50.6359 25.5062 51.6158C27.0569 53.8637 28.9685 55.6217 31.2411 56.8897C33.5136 58.1578 35.9332 58.7918 38.4999 58.7918C41.1201 58.7918 43.5664 58.1578 45.839 56.8897C48.1115 55.6217 49.9964 53.8637 51.4937 51.6158C52.1888 50.6359 53.0043 49.8578 53.94 49.2814C54.8758 48.705 55.8517 48.4168 56.8676 48.4168H67.3749C69.193 48.4168 70.7169 49.0797 71.9468 50.4054C73.1766 51.7311 73.7916 53.3738 73.7916 55.3335V69.1668H51.3332V61.2991C49.4617 62.7401 47.4431 63.8352 45.2775 64.5845C43.1119 65.3338 40.8527 65.7085 38.4999 65.7085C36.2006 65.7085 33.9548 65.3194 31.7624 64.5413C29.5701 63.7632 27.5381 62.6536 25.6666 61.2127V69.1668H3.20825ZM38.4999 55.3335C36.468 55.3335 34.543 54.8292 32.7249 53.8205C30.9069 52.8118 29.3829 51.4141 28.153 49.6272C27.244 48.1863 26.1077 47.0479 24.7442 46.2121C23.3806 45.3764 21.8968 44.9585 20.2926 44.9585C21.469 42.8259 23.9555 41.1399 27.752 39.9007C31.5485 38.6614 35.1312 38.0418 38.4999 38.0418C41.8687 38.0418 45.4513 38.6614 49.2478 39.9007C53.0444 41.1399 55.5308 42.8259 56.7072 44.9585C55.1565 44.9585 53.686 45.3764 52.2957 46.2121C50.9055 47.0479 49.7558 48.1863 48.8468 49.6272C47.6704 51.4717 46.1732 52.8838 44.3551 53.8637C42.5371 54.8436 40.5853 55.3335 38.4999 55.3335ZM12.8333 44.9585C10.1596 44.9585 7.88707 43.9498 6.01554 41.9325C4.14402 39.9151 3.20825 37.4654 3.20825 34.5835C3.20825 31.6439 4.14402 29.1799 6.01554 27.1913C7.88707 25.2028 10.1596 24.2085 12.8333 24.2085C15.5603 24.2085 17.8463 25.2028 19.6911 27.1913C21.5359 29.1799 22.4583 31.6439 22.4583 34.5835C22.4583 37.4654 21.5359 39.9151 19.6911 41.9325C17.8463 43.9498 15.5603 44.9585 12.8333 44.9585ZM64.1666 44.9585C61.493 44.9585 59.2204 43.9498 57.3489 41.9325C55.4773 39.9151 54.5416 37.4654 54.5416 34.5835C54.5416 31.6439 55.4773 29.1799 57.3489 27.1913C59.2204 25.2028 61.493 24.2085 64.1666 24.2085C66.8937 24.2085 69.1796 25.2028 71.0244 27.1913C72.8692 29.1799 73.7916 31.6439 73.7916 34.5835C73.7916 37.4654 72.8692 39.9151 71.0244 41.9325C69.1796 43.9498 66.8937 44.9585 64.1666 44.9585ZM38.4999 34.5835C35.8263 34.5835 33.5537 33.5748 31.6822 31.5575C29.8107 29.5401 28.8749 27.0904 28.8749 24.2085C28.8749 21.2689 29.8107 18.8049 31.6822 16.8163C33.5537 14.8278 35.8263 13.8335 38.4999 13.8335C41.227 13.8335 43.5129 14.8278 45.3577 16.8163C47.2025 18.8049 48.1249 21.2689 48.1249 24.2085C48.1249 27.0904 47.2025 29.5401 45.3577 31.5575C43.5129 33.5748 41.227 34.5835 38.4999 34.5835Z" fill="#4956AD"/>
</svg>
